<svg version="1.1" id="Layer_1" xmlns="http://www.w3.org/2000/svg" xmlns:xlink="http://www.w3.org/1999/xlink" x="0px" y="0px"
	 width="100%" viewBox="0 0 448 352" enable-background="new 0 0 448 352" xml:space="preserve">
<path fill="#000000" opacity="1.000000" stroke="none" 
	d="
M377.566040,177.646515 
	C379.687531,181.002014 378.598816,183.670502 376.770691,186.270966 
	C372.786987,191.937668 367.596283,196.404129 362.122833,200.487808 
	C333.030365,222.193253 300.224701,234.780365 264.340332,239.175232 
	C229.308060,243.465744 196.572647,235.327835 165.460953,219.487701 
	C162.195724,217.825241 158.653992,216.490585 155.797882,214.282837 
	C148.953583,208.992142 142.152374,210.280594 135.203018,213.604019 
	C127.034973,217.510284 120.093590,223.329590 112.616554,228.309967 
	C105.544044,233.020920 98.558990,237.874954 90.956581,241.702713 
	C88.001389,243.190643 84.883606,244.477539 81.703575,245.370682 
	C75.756744,247.040894 72.955666,245.123352 73.808739,239.161560 
	C76.830154,218.045914 83.205872,198.298492 99.000732,182.834229 
	C99.347595,182.494598 99.633095,182.092316 99.871582,181.809097 
	C100.115906,180.245361 98.959396,179.671616 98.182579,178.847610 
	C83.292145,163.052612 76.233383,143.784576 73.682434,122.658134 
	C72.902397,116.198074 74.935738,114.870934 81.272148,116.705612 
	C87.744980,118.579781 93.516457,121.975388 99.113129,125.575546 
	C109.058426,131.973053 118.855408,138.602310 128.675812,145.192184 
	C132.445557,147.721817 136.448013,149.682709 140.810303,150.946091 
	C145.341034,152.258286 149.438644,151.869370 153.685242,149.375763 
	C175.270523,136.700882 198.240173,127.360664 223.109711,123.907539 
	C251.792603,119.924927 279.843994,123.661942 307.110168,133.318161 
	C330.237030,141.508484 351.731537,152.602356 370.135986,169.103973 
	C372.859802,171.546173 375.440063,174.166824 377.566040,177.646515 
M341.945709,171.639328 
	C343.448730,174.638489 345.916595,175.558044 348.981964,174.570496 
	C351.206390,173.853867 352.518036,172.125595 352.602478,169.730820 
	C352.703186,166.875122 351.095001,165.061340 348.578766,164.088943 
	C344.833282,162.641495 341.784546,165.712769 341.945709,171.639328 
z"/>
</svg>